<svg width="112" height="36" viewBox="0 0 112 36" fill="none" xmlns="http://www.w3.org/2000/svg">
    <path d="M13.603 36h-4.25c-2.72 0-5.051-.983-6.742-2.736C.897 31.49 0 28.868 0 26.536V23.56l1.809 2.503.005.474c.014 4.013 2.844 7.664 7.54 7.664H17.882c4.415 0 7.54-3.22 7.54-7.844v-10.18l-3.756-5.185V9.548c-.024-1.201-.523-2.45-1.259-3.077-.702-.593-1.99-1.083-3.39-1.03h-6.804c-3.096 0-4.648 1.533-4.648 4.558v11.856l-1.942-2.683V9.871c0-3.95 2.45-6.244 6.59-6.244H17.012c1.828 0 3.163.394 4.36 1.23 1.898 1.33 2.236 3.789 2.236 4.69v1.012l3.627 5.01v10.787c0 2.692-.912 5.118-2.569 6.88-1.7 1.809-4.107 2.763-6.78 2.763H13.603z" fill="#F7F9FE"/>
    <path d="M13.627 32.387h3.385c4.14 0 6.59-2.289 6.59-6.244v-9.302l-1.941-2.682v11.856c0 3.03-1.558 4.558-4.649 4.558H10.213c-1.396.052-2.687-.432-3.39-1.03-.736-.627-1.235-1.876-1.258-3.077v-1.444l-3.751-5.184V9.657c0-4.625 3.124-7.844 7.54-7.844h8.532c4.696 0 7.516 3.632 7.53 7.644l.005.475 1.81 2.502V9.458c0-2.331-.898-4.952-2.607-6.723C22.929.983 20.602 0 17.877 0H9.349c-2.673 0-5.08.969-6.78 2.778C.912 4.539 0 6.97 0 9.658v10.787l3.628 5.01v1.01c0 .903.337 3.363 2.236 4.692 1.196.836 2.53 1.23 4.359 1.23h3.404zM41.316 21.085c0 .38-.076.708-.233.988-.157.28-.37.513-.64.698a2.93 2.93 0 0 1-.95.418c-.361.095-.746.142-1.15.142H34.07v-8.765h4.877c.303 0 .579.067.826.2s.456.304.631.513a2.43 2.43 0 0 1 .546 1.538c0 .418-.104.817-.313 1.187-.209.37-.522.65-.945.84.503.148.897.413 1.192.789.294.375.432.859.432 1.453zm-5.223-4.79v1.813h1.99a.897.897 0 0 0 .593-.223c.17-.147.261-.38.261-.693 0-.29-.076-.508-.228-.665a.74.74 0 0 0-.55-.232h-2.066zm3.162 4.382c0-.27-.08-.503-.232-.693a.74.74 0 0 0-.594-.285h-2.331v1.914h2.246c.26 0 .48-.086.655-.262.17-.17.256-.394.256-.674zM42.516 23.331v-8.765h2.022v8.765h-2.022zM48.241 18.317v5.014H46.22v-8.765h1.58l4.089 5.147v-5.147h2.023v8.765h-1.629l-4.04-5.014zM57.969 14.566h1.828l3.195 8.765h-2.075l-.674-1.965h-2.73l-.665 1.96h-2.075l3.196-8.76zm1.942 5.408-1.026-3.1-1.049 3.1h2.075zM63.86 23.331v-8.765h3.95c.413 0 .793.086 1.144.262.351.17.65.398.907.679.256.28.456.598.598.95a2.87 2.87 0 0 1 .119 1.856 2.98 2.98 0 0 1-.285.707 2.676 2.676 0 0 1-1.05 1.05l1.928 3.257h-2.283L67.207 20.5h-1.32v2.826h-2.028v.004zm2.022-4.591h1.852c.237 0 .446-.114.617-.342.171-.228.261-.517.261-.869 0-.36-.1-.65-.294-.864-.2-.214-.413-.323-.641-.323h-1.79v2.398h-.005zM73.206 14.566l1.89 4.027 1.913-4.027h2.208l-3.124 5.779v2.986H74.08v-3.01l-3.072-5.755h2.198z" fill="#F7F9FE"/>
    <path d="m81.302 14.566 2.061 6.22 2.037-6.22h2.137l-3.32 8.765h-1.704l-3.357-8.765h2.146zM94.51 21.55v1.777h-6.158v-8.76H94.4v1.775h-4.027v1.705h3.457v1.643h-3.457v1.866h4.136v-.005zM95.742 23.331v-8.765h3.272c.721 0 1.358.114 1.899.347.541.233.997.541 1.363.94.365.394.641.86.826 1.387a5.13 5.13 0 0 1 .275 1.7c0 .664-.104 1.267-.309 1.808a3.786 3.786 0 0 1-.883 1.382 3.949 3.949 0 0 1-1.381.888 4.932 4.932 0 0 1-1.795.313h-3.267zm5.584-4.396c0-.385-.052-.741-.157-1.054a2.357 2.357 0 0 0-.451-.822 2.02 2.02 0 0 0-.726-.532 2.453 2.453 0 0 0-.974-.185H97.77v5.209h1.248c.37 0 .698-.067.988-.2.29-.133.527-.313.722-.55.194-.233.342-.508.446-.826.1-.314.152-.66.152-1.04zM106.661 14.566h1.828l3.196 8.765h-2.075l-.679-1.965h-2.73l-.665 1.96h-2.075l3.2-8.76zm1.937 5.408-1.025-3.1-1.05 3.1h2.075z" fill="#F7F9FE"/>
</svg>
